<svg width="102" height="31" viewBox="0 0 102 31" fill="none" xmlns="http://www.w3.org/2000/svg">
<g clip-path="url(#clip0_5659_20907)">
<g filter="url(#filter0_d_5659_20907)">
<path d="M17.2578 9.34766C17.7432 9.34766 18.1367 8.95416 18.1367 8.46875C18.1367 7.98334 17.7432 7.58984 17.2578 7.58984C16.7724 7.58984 16.3789 7.98334 16.3789 8.46875C16.3789 8.95416 16.7724 9.34766 17.2578 9.34766Z" fill="white"/>
<path d="M20.7734 9.34766C21.2588 9.34766 21.6523 8.95416 21.6523 8.46875C21.6523 7.98334 21.2588 7.58984 20.7734 7.58984C20.288 7.58984 19.8945 7.98334 19.8945 8.46875C19.8945 8.95416 20.288 9.34766 20.7734 9.34766Z" fill="white"/>
<path d="M24.2891 9.34766C24.7745 9.34766 25.168 8.95416 25.168 8.46875C25.168 7.98334 24.7745 7.58984 24.2891 7.58984C23.8037 7.58984 23.4102 7.98334 23.4102 8.46875C23.4102 8.95416 23.8037 9.34766 24.2891 9.34766Z" fill="white"/>
<path d="M20.2586 28.6836C21.7055 28.6836 22.8828 27.5008 22.8828 26.0469V22.5312C22.8828 22.1531 22.641 21.8175 22.2825 21.6976L17.0215 19.9398C16.7639 19.8538 16.4813 19.8916 16.2554 20.0421L14.0182 21.5336C11.6171 20.3943 8.77924 17.5816 7.65049 15.2232L9.14147 12.9867C9.29199 12.7609 9.32979 12.4781 9.24377 12.2207L7.48596 6.95973C7.36613 6.60113 7.03045 6.35938 6.65234 6.35938H3.13672C1.68283 6.35938 0.5 7.53658 0.5 8.98361C0.5 13.8397 2.70805 18.8236 6.55801 22.6575C10.4038 26.4871 15.3975 28.6836 20.2586 28.6836ZM3.13672 8.11719H6.01936L7.44025 12.3697L5.92109 14.6484C5.76055 14.8892 5.72885 15.1936 5.83637 15.4623C6.42084 16.9235 7.59049 18.5669 9.1298 20.0898C10.659 21.6026 12.3104 22.7595 13.7799 23.3472C14.0485 23.4547 14.353 23.423 14.5938 23.2625L16.8726 21.7433L21.125 23.1642V26.0469C21.125 26.5397 20.7444 26.9258 20.2586 26.9258C11.0059 26.9258 2.25781 18.2062 2.25781 8.98361C2.25781 8.49775 2.64389 8.11719 3.13672 8.11719V8.11719Z" fill="white"/>
<path d="M16.9215 18.0698C17.2498 18.2059 17.6279 18.1306 17.8793 17.8793L21.1375 14.6211H24.2891C27.7138 14.6211 30.5 11.8612 30.5 8.46875C30.5 5.07635 27.7138 2.31641 24.2891 2.31641H17.2578C13.8654 2.31641 11.1055 5.07635 11.1055 8.46875C11.1055 11.5628 13.4013 14.1307 16.3789 14.5585V17.2578C16.3789 17.6133 16.5931 17.9337 16.9215 18.0698V18.0698ZM12.8633 8.46875C12.8633 6.04561 14.8347 4.07422 17.2578 4.07422H24.2891C26.7445 4.07422 28.7422 6.04561 28.7422 8.46875C28.7422 10.8919 26.7445 12.8633 24.2891 12.8633H20.7734C20.5403 12.8633 20.3168 12.9559 20.152 13.1207L18.1367 15.136V13.7422C18.1367 13.2568 17.7432 12.8633 17.2578 12.8633C14.8347 12.8633 12.8633 10.8919 12.8633 8.46875Z" fill="white"/>
</g>
</g>
<path d="M47.79 21.68C46.47 21.68 45.336 21.416 44.388 20.888C43.452 20.348 42.732 19.592 42.228 18.62C41.724 17.636 41.472 16.478 41.472 15.146C41.472 13.814 41.724 12.662 42.228 11.69C42.732 10.718 43.452 9.968 44.388 9.44C45.336 8.9 46.47 8.63 47.79 8.63C48.45 8.63 49.098 8.714 49.734 8.882C50.37 9.05 50.928 9.29 51.408 9.602C51.72 9.806 51.906 10.052 51.966 10.34C52.026 10.616 51.99 10.874 51.858 11.114C51.726 11.342 51.528 11.498 51.264 11.582C51 11.654 50.706 11.582 50.382 11.366C50.01 11.126 49.608 10.952 49.176 10.844C48.744 10.736 48.306 10.682 47.862 10.682C46.578 10.682 45.6 11.072 44.928 11.852C44.256 12.62 43.92 13.718 43.92 15.146C43.92 16.574 44.256 17.678 44.928 18.458C45.6 19.238 46.578 19.628 47.862 19.628C48.318 19.628 48.768 19.574 49.212 19.466C49.656 19.346 50.076 19.166 50.472 18.926C50.796 18.722 51.084 18.656 51.336 18.728C51.588 18.8 51.774 18.95 51.894 19.178C52.026 19.394 52.068 19.634 52.02 19.898C51.972 20.162 51.81 20.396 51.534 20.6C51.054 20.948 50.478 21.218 49.806 21.41C49.146 21.59 48.474 21.68 47.79 21.68ZM56.486 21.68C55.85 21.68 55.28 21.56 54.776 21.32C54.284 21.068 53.894 20.732 53.606 20.312C53.33 19.892 53.192 19.418 53.192 18.89C53.192 18.242 53.36 17.732 53.696 17.36C54.032 16.976 54.578 16.7 55.334 16.532C56.09 16.364 57.104 16.28 58.376 16.28H59.006V15.902C59.006 15.302 58.874 14.87 58.61 14.606C58.346 14.342 57.902 14.21 57.278 14.21C56.93 14.21 56.552 14.252 56.144 14.336C55.748 14.42 55.328 14.564 54.884 14.768C54.596 14.9 54.356 14.918 54.164 14.822C53.972 14.714 53.84 14.552 53.768 14.336C53.708 14.108 53.72 13.88 53.804 13.652C53.9 13.424 54.086 13.256 54.362 13.148C54.914 12.92 55.442 12.758 55.946 12.662C56.462 12.566 56.93 12.518 57.35 12.518C58.634 12.518 59.588 12.818 60.212 13.418C60.836 14.006 61.148 14.924 61.148 16.172V20.492C61.148 21.26 60.8 21.644 60.104 21.644C59.396 21.644 59.042 21.26 59.042 20.492V20.096C58.838 20.588 58.514 20.978 58.07 21.266C57.626 21.542 57.098 21.68 56.486 21.68ZM56.954 20.132C57.542 20.132 58.028 19.928 58.412 19.52C58.808 19.112 59.006 18.596 59.006 17.972V17.576H58.394C57.266 17.576 56.48 17.666 56.036 17.846C55.604 18.014 55.388 18.326 55.388 18.782C55.388 19.178 55.526 19.502 55.802 19.754C56.078 20.006 56.462 20.132 56.954 20.132ZM66.4377 21.68C64.4337 21.68 63.4317 20.558 63.4317 18.314V9.8C63.4317 9.044 63.8037 8.666 64.5477 8.666C65.3037 8.666 65.6817 9.044 65.6817 9.8V18.206C65.6817 19.286 66.1317 19.826 67.0317 19.826C67.1277 19.826 67.2177 19.826 67.3017 19.826C67.3857 19.814 67.4697 19.802 67.5537 19.79C67.7217 19.766 67.8357 19.814 67.8957 19.934C67.9557 20.042 67.9857 20.27 67.9857 20.618C67.9857 20.918 67.9257 21.152 67.8057 21.32C67.6857 21.488 67.4877 21.59 67.2117 21.626C66.9597 21.662 66.7017 21.68 66.4377 21.68ZM72.1858 21.68C70.1818 21.68 69.1798 20.558 69.1798 18.314V9.8C69.1798 9.044 69.5518 8.666 70.2958 8.666C71.0518 8.666 71.4298 9.044 71.4298 9.8V18.206C71.4298 19.286 71.8798 19.826 72.7798 19.826C72.8758 19.826 72.9658 19.826 73.0498 19.826C73.1338 19.814 73.2178 19.802 73.3018 19.79C73.4698 19.766 73.5838 19.814 73.6438 19.934C73.7038 20.042 73.7338 20.27 73.7338 20.618C73.7338 20.918 73.6738 21.152 73.5538 21.32C73.4338 21.488 73.2358 21.59 72.9598 21.626C72.7078 21.662 72.4498 21.68 72.1858 21.68ZM85.3045 21.68C83.5645 21.68 82.2325 21.23 81.3085 20.33C80.3965 19.418 79.9405 18.074 79.9405 16.298V9.836C79.9405 9.056 80.3245 8.666 81.0925 8.666C81.8605 8.666 82.2445 9.056 82.2445 9.836V16.28C82.2445 17.42 82.5025 18.278 83.0185 18.854C83.5465 19.418 84.3085 19.7 85.3045 19.7C87.3325 19.7 88.3465 18.56 88.3465 16.28V9.836C88.3465 9.056 88.7305 8.666 89.4985 8.666C90.2545 8.666 90.6325 9.056 90.6325 9.836V16.298C90.6325 18.074 90.1825 19.418 89.2825 20.33C88.3825 21.23 87.0565 21.68 85.3045 21.68ZM96.3256 21.68C95.8096 21.68 95.2636 21.626 94.6876 21.518C94.1116 21.41 93.5956 21.224 93.1396 20.96C92.8876 20.816 92.7316 20.642 92.6716 20.438C92.6116 20.222 92.6176 20.024 92.6896 19.844C92.7736 19.652 92.9056 19.514 93.0856 19.43C93.2776 19.346 93.4996 19.364 93.7516 19.484C94.2316 19.712 94.6816 19.874 95.1016 19.97C95.5216 20.054 95.9356 20.096 96.3436 20.096C96.9196 20.096 97.3456 20 97.6216 19.808C97.9096 19.604 98.0536 19.34 98.0536 19.016C98.0536 18.512 97.6816 18.188 96.9376 18.044L95.1376 17.702C93.6136 17.414 92.8516 16.622 92.8516 15.326C92.8516 14.75 93.0076 14.252 93.3196 13.832C93.6436 13.412 94.0876 13.088 94.6516 12.86C95.2156 12.632 95.8636 12.518 96.5956 12.518C97.6516 12.518 98.5936 12.752 99.4216 13.22C99.6496 13.34 99.7816 13.508 99.8176 13.724C99.8656 13.928 99.8416 14.126 99.7456 14.318C99.6616 14.498 99.5236 14.63 99.3316 14.714C99.1396 14.786 98.9176 14.762 98.6656 14.642C98.2936 14.45 97.9336 14.312 97.5856 14.228C97.2496 14.144 96.9256 14.102 96.6136 14.102C96.0256 14.102 95.5876 14.204 95.2996 14.408C95.0236 14.612 94.8856 14.882 94.8856 15.218C94.8856 15.746 95.2276 16.07 95.9116 16.19L97.7116 16.532C98.4916 16.676 99.0796 16.94 99.4756 17.324C99.8836 17.708 100.088 18.224 100.088 18.872C100.088 19.748 99.7456 20.438 99.0616 20.942C98.3776 21.434 97.4656 21.68 96.3256 21.68Z" fill="white"/>
<defs>
<filter id="filter0_d_5659_20907" x="-14.5" y="-14.6836" width="66" height="62.3672" filterUnits="userSpaceOnUse" color-interpolation-filters="sRGB">
<feFlood flood-opacity="0" result="BackgroundImageFix"/>
<feColorMatrix in="SourceAlpha" type="matrix" values="0 0 0 0 0 0 0 0 0 0 0 0 0 0 0 0 0 0 127 0" result="hardAlpha"/>
<feOffset dx="3" dy="1"/>
<feGaussianBlur stdDeviation="9"/>
<feComposite in2="hardAlpha" operator="out"/>
<feColorMatrix type="matrix" values="0 0 0 0 0 0 0 0 0 0 0 0 0 0 0 0 0 0 0.2 0"/>
<feBlend mode="normal" in2="BackgroundImageFix" result="effect1_dropShadow_5659_20907"/>
<feBlend mode="normal" in="SourceGraphic" in2="effect1_dropShadow_5659_20907" result="shape"/>
</filter>
<clipPath id="clip0_5659_20907">
<rect width="30" height="30" fill="white" transform="translate(0.5 0.5)"/>
</clipPath>
</defs>
</svg>
