<svg width="303" height="45" viewBox="0 0 303 45" fill="none" xmlns="http://www.w3.org/2000/svg">
<rect y="0.350586" width="303" height="44" rx="5" fill="#00730C"/>
<path d="M111.656 27.5106C110.408 27.5106 109.352 27.2759 108.488 26.8066C107.635 26.3373 106.984 25.6706 106.536 24.8066C106.088 23.9426 105.864 22.9186 105.864 21.7346C105.864 20.5399 106.093 19.5106 106.552 18.6466C107.011 17.7719 107.672 17.0999 108.536 16.6306C109.4 16.1506 110.435 15.9106 111.64 15.9106C112.237 15.9106 112.835 15.9853 113.432 16.1346C114.04 16.2733 114.611 16.5133 115.144 16.8546C115.379 16.9933 115.512 17.1799 115.544 17.4146C115.587 17.6386 115.555 17.8519 115.448 18.0546C115.341 18.2573 115.181 18.4013 114.968 18.4866C114.755 18.5613 114.52 18.5239 114.264 18.3746C113.859 18.1399 113.448 17.9693 113.032 17.8626C112.616 17.7559 112.152 17.7026 111.64 17.7026C110.445 17.7026 109.539 18.0493 108.92 18.7426C108.312 19.4359 108.008 20.4333 108.008 21.7346C108.008 23.0466 108.323 24.0439 108.952 24.7266C109.581 25.4093 110.515 25.7506 111.752 25.7506C112.104 25.7506 112.461 25.7239 112.824 25.6706C113.197 25.6066 113.565 25.5159 113.928 25.3986V22.7746H112.168C111.613 22.7746 111.336 22.5186 111.336 22.0066C111.336 21.5053 111.613 21.2546 112.168 21.2546H114.808C115.363 21.2546 115.64 21.5319 115.64 22.0866V25.9746C115.64 26.4653 115.448 26.7799 115.064 26.9186C114.595 27.0893 114.056 27.2333 113.448 27.3506C112.84 27.4573 112.243 27.5106 111.656 27.5106ZM121.677 27.5106C120.792 27.5106 120.029 27.3453 119.389 27.0146C118.749 26.6839 118.253 26.2146 117.901 25.6066C117.56 24.9986 117.389 24.2786 117.389 23.4466C117.389 22.6359 117.555 21.9266 117.885 21.3186C118.227 20.7106 118.691 20.2359 119.277 19.8946C119.875 19.5426 120.552 19.3666 121.309 19.3666C122.419 19.3666 123.293 19.7186 123.933 20.4226C124.584 21.1266 124.909 22.0866 124.909 23.3026C124.909 23.6973 124.653 23.8946 124.141 23.8946H119.309C119.459 25.2919 120.259 25.9906 121.709 25.9906C121.987 25.9906 122.296 25.9586 122.637 25.8946C122.989 25.8199 123.32 25.6973 123.629 25.5266C123.907 25.3666 124.141 25.3186 124.333 25.3826C124.525 25.4359 124.659 25.5479 124.733 25.7186C124.819 25.8893 124.829 26.0813 124.765 26.2946C124.712 26.4973 124.563 26.6733 124.317 26.8226C123.944 27.0573 123.512 27.2333 123.021 27.3506C122.541 27.4573 122.093 27.5106 121.677 27.5106ZM121.389 20.7266C120.803 20.7266 120.328 20.9079 119.965 21.2706C119.603 21.6333 119.384 22.1239 119.309 22.7426H123.245C123.203 22.0919 123.021 21.5959 122.701 21.2546C122.392 20.9026 121.955 20.7266 121.389 20.7266ZM130.046 27.5106C127.977 27.5106 126.942 26.4866 126.942 24.4386V21.0306H126.11C125.577 21.0306 125.31 20.7799 125.31 20.2786C125.31 19.7773 125.577 19.5266 126.11 19.5266H126.942V18.0706C126.942 17.3986 127.278 17.0626 127.95 17.0626C128.611 17.0626 128.942 17.3986 128.942 18.0706V19.5266H130.638C131.171 19.5266 131.438 19.7773 131.438 20.2786C131.438 20.7799 131.171 21.0306 130.638 21.0306H128.942V24.3266C128.942 24.8386 129.054 25.2226 129.278 25.4786C129.502 25.7346 129.865 25.8626 130.366 25.8626C130.547 25.8626 130.707 25.8466 130.846 25.8146C130.985 25.7826 131.107 25.7613 131.214 25.7506C131.342 25.7399 131.449 25.7826 131.534 25.8786C131.619 25.9639 131.662 26.1453 131.662 26.4226C131.662 26.6359 131.625 26.8279 131.55 26.9986C131.486 27.1586 131.363 27.2706 131.182 27.3346C131.043 27.3773 130.862 27.4146 130.638 27.4466C130.414 27.4893 130.217 27.5106 130.046 27.5106ZM137.25 27.4786C136.877 27.4786 136.61 27.3506 136.45 27.0946C136.29 26.8386 136.296 26.5293 136.466 26.1666L140.69 16.8066C140.829 16.4973 140.994 16.2786 141.186 16.1506C141.389 16.0119 141.618 15.9426 141.874 15.9426C142.12 15.9426 142.338 16.0119 142.53 16.1506C142.733 16.2786 142.904 16.4973 143.042 16.8066L147.282 26.1666C147.453 26.5399 147.464 26.8546 147.314 27.1106C147.165 27.3559 146.909 27.4786 146.546 27.4786C146.248 27.4786 146.013 27.4093 145.842 27.2706C145.682 27.1213 145.538 26.8973 145.41 26.5986L144.61 24.7426H139.106L138.322 26.5986C138.184 26.9079 138.04 27.1319 137.89 27.2706C137.741 27.4093 137.528 27.4786 137.25 27.4786ZM141.842 18.2946L139.81 23.1106H143.906L141.874 18.2946H141.842ZM162.764 29.1586C162.946 29.4466 162.994 29.7026 162.908 29.9266C162.834 30.1613 162.679 30.3319 162.444 30.4386C162.22 30.5559 161.975 30.5879 161.708 30.5346C161.452 30.4813 161.234 30.3106 161.052 30.0226L159.948 28.2466C159.65 27.7559 159.143 27.5106 158.428 27.5106C157.34 27.5106 156.391 27.2706 155.58 26.7906C154.77 26.3106 154.14 25.6386 153.692 24.7746C153.244 23.8999 153.02 22.8759 153.02 21.7026C153.02 20.5186 153.244 19.4946 153.692 18.6306C154.14 17.7666 154.77 17.0999 155.58 16.6306C156.391 16.1506 157.346 15.9106 158.444 15.9106C159.543 15.9106 160.498 16.1506 161.308 16.6306C162.119 17.0999 162.748 17.7666 163.196 18.6306C163.644 19.4946 163.868 20.5133 163.868 21.6866C163.868 22.9666 163.602 24.0653 163.068 24.9826C162.546 25.8999 161.82 26.5719 160.892 26.9986C161.127 27.0839 161.335 27.2119 161.516 27.3826C161.708 27.5533 161.895 27.7826 162.076 28.0706L162.764 29.1586ZM158.444 25.7506C159.479 25.7506 160.284 25.3933 160.86 24.6786C161.436 23.9639 161.724 22.9719 161.724 21.7026C161.724 20.4226 161.436 19.4306 160.86 18.7266C160.295 18.0226 159.49 17.6706 158.444 17.6706C157.41 17.6706 156.604 18.0226 156.028 18.7266C155.452 19.4306 155.164 20.4226 155.164 21.7026C155.164 22.9719 155.452 23.9639 156.028 24.6786C156.604 25.3933 157.41 25.7506 158.444 25.7506ZM168.591 27.5106C166.671 27.5106 165.711 26.4333 165.711 24.2786V20.4066C165.711 19.7346 166.041 19.3986 166.703 19.3986C167.375 19.3986 167.711 19.7346 167.711 20.4066V24.3106C167.711 24.8653 167.823 25.2759 168.047 25.5426C168.271 25.8093 168.628 25.9426 169.119 25.9426C169.652 25.9426 170.089 25.7613 170.431 25.3986C170.772 25.0253 170.943 24.5346 170.943 23.9266V20.4066C170.943 19.7346 171.273 19.3986 171.935 19.3986C172.607 19.3986 172.943 19.7346 172.943 20.4066V26.4546C172.943 27.1373 172.617 27.4786 171.967 27.4786C171.316 27.4786 170.991 27.1373 170.991 26.4546V26.1826C170.468 27.0679 169.668 27.5106 168.591 27.5106ZM177.6 27.5106C177.035 27.5106 176.528 27.4039 176.08 27.1906C175.643 26.9666 175.296 26.6679 175.04 26.2946C174.795 25.9213 174.672 25.4999 174.672 25.0306C174.672 24.4546 174.822 24.0013 175.12 23.6706C175.419 23.3293 175.904 23.0839 176.576 22.9346C177.248 22.7853 178.15 22.7106 179.28 22.7106H179.84V22.3746C179.84 21.8413 179.723 21.4573 179.488 21.2226C179.254 20.9879 178.859 20.8706 178.304 20.8706C177.995 20.8706 177.659 20.9079 177.296 20.9826C176.944 21.0573 176.571 21.1853 176.176 21.3666C175.92 21.4839 175.707 21.4999 175.536 21.4146C175.366 21.3186 175.248 21.1746 175.184 20.9826C175.131 20.7799 175.142 20.5773 175.216 20.3746C175.302 20.1719 175.467 20.0226 175.712 19.9266C176.203 19.7239 176.672 19.5799 177.12 19.4946C177.579 19.4093 177.995 19.3666 178.368 19.3666C179.51 19.3666 180.358 19.6333 180.912 20.1666C181.467 20.6893 181.744 21.5053 181.744 22.6146V26.4546C181.744 27.1373 181.435 27.4786 180.816 27.4786C180.187 27.4786 179.872 27.1373 179.872 26.4546V26.1026C179.691 26.5399 179.403 26.8866 179.008 27.1426C178.614 27.3879 178.144 27.5106 177.6 27.5106ZM178.016 26.1346C178.539 26.1346 178.971 25.9533 179.312 25.5906C179.664 25.2279 179.84 24.7693 179.84 24.2146V23.8626H179.296C178.294 23.8626 177.595 23.9426 177.2 24.1026C176.816 24.2519 176.624 24.5293 176.624 24.9346C176.624 25.2866 176.747 25.5746 176.992 25.7986C177.238 26.0226 177.579 26.1346 178.016 26.1346ZM187.358 27.5106C185.289 27.5106 184.254 26.4866 184.254 24.4386V21.0306H183.422C182.889 21.0306 182.622 20.7799 182.622 20.2786C182.622 19.7773 182.889 19.5266 183.422 19.5266H184.254V18.0706C184.254 17.3986 184.59 17.0626 185.262 17.0626C185.924 17.0626 186.254 17.3986 186.254 18.0706V19.5266H187.95C188.484 19.5266 188.75 19.7773 188.75 20.2786C188.75 20.7799 188.484 21.0306 187.95 21.0306H186.254V24.3266C186.254 24.8386 186.366 25.2226 186.59 25.4786C186.814 25.7346 187.177 25.8626 187.678 25.8626C187.86 25.8626 188.02 25.8466 188.158 25.8146C188.297 25.7826 188.42 25.7613 188.526 25.7506C188.654 25.7399 188.761 25.7826 188.846 25.8786C188.932 25.9639 188.974 26.1453 188.974 26.4226C188.974 26.6359 188.937 26.8279 188.862 26.9986C188.798 27.1586 188.676 27.2706 188.494 27.3346C188.356 27.3773 188.174 27.4146 187.95 27.4466C187.726 27.4893 187.529 27.5106 187.358 27.5106ZM193.693 27.5106C192.808 27.5106 192.045 27.3453 191.405 27.0146C190.765 26.6839 190.269 26.2146 189.917 25.6066C189.576 24.9986 189.405 24.2786 189.405 23.4466C189.405 22.6359 189.57 21.9266 189.901 21.3186C190.242 20.7106 190.706 20.2359 191.293 19.8946C191.89 19.5426 192.568 19.3666 193.325 19.3666C194.434 19.3666 195.309 19.7186 195.949 20.4226C196.6 21.1266 196.925 22.0866 196.925 23.3026C196.925 23.6973 196.669 23.8946 196.157 23.8946H191.325C191.474 25.2919 192.274 25.9906 193.725 25.9906C194.002 25.9906 194.312 25.9586 194.653 25.8946C195.005 25.8199 195.336 25.6973 195.645 25.5266C195.922 25.3666 196.157 25.3186 196.349 25.3826C196.541 25.4359 196.674 25.5479 196.749 25.7186C196.834 25.8893 196.845 26.0813 196.781 26.2946C196.728 26.4973 196.578 26.6733 196.333 26.8226C195.96 27.0573 195.528 27.2333 195.037 27.3506C194.557 27.4573 194.109 27.5106 193.693 27.5106ZM193.405 20.7266C192.818 20.7266 192.344 20.9079 191.981 21.2706C191.618 21.6333 191.4 22.1239 191.325 22.7426H195.261C195.218 22.0919 195.037 21.5959 194.717 21.2546C194.408 20.9026 193.97 20.7266 193.405 20.7266Z" fill="white"/>
</svg>
