<svg width="175" height="50" viewBox="0 0 175 50" fill="none" xmlns="http://www.w3.org/2000/svg">
<rect width="175" height="50" rx="5" fill="#00730C"/>
<path d="M42.488 31.18C41.084 31.18 39.896 30.916 38.924 30.388C37.964 29.86 37.232 29.11 36.728 28.138C36.224 27.166 35.972 26.014 35.972 24.682C35.972 23.338 36.23 22.18 36.746 21.208C37.262 20.224 38.006 19.468 38.978 18.94C39.95 18.4 41.114 18.13 42.47 18.13C43.142 18.13 43.814 18.214 44.486 18.382C45.17 18.538 45.812 18.808 46.412 19.192C46.676 19.348 46.826 19.558 46.862 19.822C46.91 20.074 46.874 20.314 46.754 20.542C46.634 20.77 46.454 20.932 46.214 21.028C45.974 21.112 45.71 21.07 45.422 20.902C44.966 20.638 44.504 20.446 44.036 20.326C43.568 20.206 43.046 20.146 42.47 20.146C41.126 20.146 40.106 20.536 39.41 21.316C38.726 22.096 38.384 23.218 38.384 24.682C38.384 26.158 38.738 27.28 39.446 28.048C40.154 28.816 41.204 29.2 42.596 29.2C42.992 29.2 43.394 29.17 43.802 29.11C44.222 29.038 44.636 28.936 45.044 28.804V25.852H43.064C42.44 25.852 42.128 25.564 42.128 24.988C42.128 24.424 42.44 24.142 43.064 24.142H46.034C46.658 24.142 46.97 24.454 46.97 25.078V29.452C46.97 30.004 46.754 30.358 46.322 30.514C45.794 30.706 45.188 30.868 44.504 31C43.82 31.12 43.148 31.18 42.488 31.18ZM53.7619 31.18C52.7659 31.18 51.9079 30.994 51.1879 30.622C50.4679 30.25 49.9099 29.722 49.5139 29.038C49.1299 28.354 48.9379 27.544 48.9379 26.608C48.9379 25.696 49.1239 24.898 49.4959 24.214C49.8799 23.53 50.4019 22.996 51.0619 22.612C51.7339 22.216 52.4959 22.018 53.3479 22.018C54.5959 22.018 55.5799 22.414 56.2999 23.206C57.0319 23.998 57.3979 25.078 57.3979 26.446C57.3979 26.89 57.1099 27.112 56.5339 27.112H51.0979C51.2659 28.684 52.1659 29.47 53.7979 29.47C54.1099 29.47 54.4579 29.434 54.8419 29.362C55.2379 29.278 55.6099 29.14 55.9579 28.948C56.2699 28.768 56.5339 28.714 56.7499 28.786C56.9659 28.846 57.1159 28.972 57.1999 29.164C57.2959 29.356 57.3079 29.572 57.2359 29.812C57.1759 30.04 57.0079 30.238 56.7319 30.406C56.3119 30.67 55.8259 30.868 55.2739 31C54.7339 31.12 54.2299 31.18 53.7619 31.18ZM53.4379 23.548C52.7779 23.548 52.2439 23.752 51.8359 24.16C51.4279 24.568 51.1819 25.12 51.0979 25.816H55.5259C55.4779 25.084 55.2739 24.526 54.9139 24.142C54.5659 23.746 54.0739 23.548 53.4379 23.548ZM63.1766 31.18C60.8486 31.18 59.6846 30.028 59.6846 27.724V23.89H58.7486C58.1486 23.89 57.8486 23.608 57.8486 23.044C57.8486 22.48 58.1486 22.198 58.7486 22.198H59.6846V20.56C59.6846 19.804 60.0626 19.426 60.8186 19.426C61.5626 19.426 61.9346 19.804 61.9346 20.56V22.198H63.8426C64.4426 22.198 64.7426 22.48 64.7426 23.044C64.7426 23.608 64.4426 23.89 63.8426 23.89H61.9346V27.598C61.9346 28.174 62.0606 28.606 62.3126 28.894C62.5646 29.182 62.9726 29.326 63.5366 29.326C63.7406 29.326 63.9206 29.308 64.0766 29.272C64.2326 29.236 64.3706 29.212 64.4906 29.2C64.6346 29.188 64.7546 29.236 64.8506 29.344C64.9466 29.44 64.9946 29.644 64.9946 29.956C64.9946 30.196 64.9526 30.412 64.8686 30.604C64.7966 30.784 64.6586 30.91 64.4546 30.982C64.2986 31.03 64.0946 31.072 63.8426 31.108C63.5906 31.156 63.3686 31.18 63.1766 31.18ZM71.2815 31.144C70.8615 31.144 70.5615 31 70.3815 30.712C70.2015 30.424 70.2075 30.076 70.3995 29.668L75.1515 19.138C75.3075 18.79 75.4935 18.544 75.7095 18.4C75.9375 18.244 76.1955 18.166 76.4835 18.166C76.7595 18.166 77.0055 18.244 77.2215 18.4C77.4495 18.544 77.6415 18.79 77.7975 19.138L82.5675 29.668C82.7595 30.088 82.7715 30.442 82.6035 30.73C82.4355 31.006 82.1475 31.144 81.7395 31.144C81.4035 31.144 81.1395 31.066 80.9475 30.91C80.7675 30.742 80.6055 30.49 80.4615 30.154L79.5615 28.066H73.3695L72.4875 30.154C72.3315 30.502 72.1695 30.754 72.0015 30.91C71.8335 31.066 71.5935 31.144 71.2815 31.144ZM76.4475 20.812L74.1615 26.23H78.7695L76.4835 20.812H76.4475ZM99.9848 33.034C100.189 33.358 100.243 33.646 100.147 33.898C100.063 34.162 99.8888 34.354 99.6248 34.474C99.3728 34.606 99.0968 34.642 98.7968 34.582C98.5088 34.522 98.2628 34.33 98.0588 34.006L96.8168 32.008C96.4808 31.456 95.9108 31.18 95.1068 31.18C93.8828 31.18 92.8148 30.91 91.9028 30.37C90.9908 29.83 90.2828 29.074 89.7788 28.102C89.2748 27.118 89.0228 25.966 89.0228 24.646C89.0228 23.314 89.2748 22.162 89.7788 21.19C90.2828 20.218 90.9908 19.468 91.9028 18.94C92.8148 18.4 93.8888 18.13 95.1248 18.13C96.3608 18.13 97.4348 18.4 98.3468 18.94C99.2588 19.468 99.9668 20.218 100.471 21.19C100.975 22.162 101.227 23.308 101.227 24.628C101.227 26.068 100.927 27.304 100.327 28.336C99.7388 29.368 98.9228 30.124 97.8788 30.604C98.1428 30.7 98.3768 30.844 98.5808 31.036C98.7968 31.228 99.0068 31.486 99.2108 31.81L99.9848 33.034ZM95.1248 29.2C96.2888 29.2 97.1948 28.798 97.8428 27.994C98.4908 27.19 98.8148 26.074 98.8148 24.646C98.8148 23.206 98.4908 22.09 97.8428 21.298C97.2068 20.506 96.3008 20.11 95.1248 20.11C93.9608 20.11 93.0548 20.506 92.4068 21.298C91.7588 22.09 91.4348 23.206 91.4348 24.646C91.4348 26.074 91.7588 27.19 92.4068 27.994C93.0548 28.798 93.9608 29.2 95.1248 29.2ZM106.54 31.18C104.38 31.18 103.3 29.968 103.3 27.544V23.188C103.3 22.432 103.672 22.054 104.416 22.054C105.172 22.054 105.55 22.432 105.55 23.188V27.58C105.55 28.204 105.676 28.666 105.928 28.966C106.18 29.266 106.582 29.416 107.134 29.416C107.734 29.416 108.226 29.212 108.61 28.804C108.994 28.384 109.186 27.832 109.186 27.148V23.188C109.186 22.432 109.558 22.054 110.302 22.054C111.058 22.054 111.436 22.432 111.436 23.188V29.992C111.436 30.76 111.07 31.144 110.338 31.144C109.606 31.144 109.24 30.76 109.24 29.992V29.686C108.652 30.682 107.752 31.18 106.54 31.18ZM116.675 31.18C116.039 31.18 115.469 31.06 114.965 30.82C114.473 30.568 114.083 30.232 113.795 29.812C113.519 29.392 113.381 28.918 113.381 28.39C113.381 27.742 113.549 27.232 113.885 26.86C114.221 26.476 114.767 26.2 115.523 26.032C116.279 25.864 117.293 25.78 118.565 25.78H119.195V25.402C119.195 24.802 119.063 24.37 118.799 24.106C118.535 23.842 118.091 23.71 117.467 23.71C117.119 23.71 116.741 23.752 116.333 23.836C115.937 23.92 115.517 24.064 115.073 24.268C114.785 24.4 114.545 24.418 114.353 24.322C114.161 24.214 114.029 24.052 113.957 23.836C113.897 23.608 113.909 23.38 113.993 23.152C114.089 22.924 114.275 22.756 114.551 22.648C115.103 22.42 115.631 22.258 116.135 22.162C116.651 22.066 117.119 22.018 117.539 22.018C118.823 22.018 119.777 22.318 120.401 22.918C121.025 23.506 121.337 24.424 121.337 25.672V29.992C121.337 30.76 120.989 31.144 120.293 31.144C119.585 31.144 119.231 30.76 119.231 29.992V29.596C119.027 30.088 118.703 30.478 118.259 30.766C117.815 31.042 117.287 31.18 116.675 31.18ZM117.143 29.632C117.731 29.632 118.217 29.428 118.601 29.02C118.997 28.612 119.195 28.096 119.195 27.472V27.076H118.583C117.455 27.076 116.669 27.166 116.225 27.346C115.793 27.514 115.577 27.826 115.577 28.282C115.577 28.678 115.715 29.002 115.991 29.254C116.267 29.506 116.651 29.632 117.143 29.632ZM127.653 31.18C125.325 31.18 124.161 30.028 124.161 27.724V23.89H123.225C122.625 23.89 122.325 23.608 122.325 23.044C122.325 22.48 122.625 22.198 123.225 22.198H124.161V20.56C124.161 19.804 124.539 19.426 125.295 19.426C126.039 19.426 126.411 19.804 126.411 20.56V22.198H128.319C128.919 22.198 129.219 22.48 129.219 23.044C129.219 23.608 128.919 23.89 128.319 23.89H126.411V27.598C126.411 28.174 126.537 28.606 126.789 28.894C127.041 29.182 127.449 29.326 128.013 29.326C128.217 29.326 128.397 29.308 128.553 29.272C128.709 29.236 128.847 29.212 128.967 29.2C129.111 29.188 129.231 29.236 129.327 29.344C129.423 29.44 129.471 29.644 129.471 29.956C129.471 30.196 129.429 30.412 129.345 30.604C129.273 30.784 129.135 30.91 128.931 30.982C128.775 31.03 128.571 31.072 128.319 31.108C128.067 31.156 127.845 31.18 127.653 31.18ZM134.779 31.18C133.783 31.18 132.925 30.994 132.205 30.622C131.485 30.25 130.927 29.722 130.531 29.038C130.147 28.354 129.955 27.544 129.955 26.608C129.955 25.696 130.141 24.898 130.513 24.214C130.897 23.53 131.419 22.996 132.079 22.612C132.751 22.216 133.513 22.018 134.365 22.018C135.613 22.018 136.597 22.414 137.317 23.206C138.049 23.998 138.415 25.078 138.415 26.446C138.415 26.89 138.127 27.112 137.551 27.112H132.115C132.283 28.684 133.183 29.47 134.815 29.47C135.127 29.47 135.475 29.434 135.859 29.362C136.255 29.278 136.627 29.14 136.975 28.948C137.287 28.768 137.551 28.714 137.767 28.786C137.983 28.846 138.133 28.972 138.217 29.164C138.313 29.356 138.325 29.572 138.253 29.812C138.193 30.04 138.025 30.238 137.749 30.406C137.329 30.67 136.843 30.868 136.291 31C135.751 31.12 135.247 31.18 134.779 31.18ZM134.455 23.548C133.795 23.548 133.261 23.752 132.853 24.16C132.445 24.568 132.199 25.12 132.115 25.816H136.543C136.495 25.084 136.291 24.526 135.931 24.142C135.583 23.746 135.091 23.548 134.455 23.548Z" fill="white"/>
</svg>
