<svg width="51" height="51" viewBox="0 0 51 51" fill="none" xmlns="http://www.w3.org/2000/svg">
<g clip-path="url(#clip0_7685_3446)">
<g filter="url(#filter0_d_7685_3446)">
<path d="M49.0787 23.2443L44.6678 27.6552L37.5128 20.5001L41.9236 16.0892L40.7453 14.9109L35.7452 19.9109L31.8227 23.8335H19.1792L15.2567 19.9109L10.2566 14.9109L9.07829 16.0892L13.4892 20.5001L6.3341 27.6552L1.92322 23.2443L0.744873 24.4227L5.74493 29.4227L9.91164 33.5894L14.3283 37.9828L13.6617 38.6495C12.6505 39.6495 12.6416 41.2799 13.6416 42.2911C13.6482 42.2978 13.6549 42.3045 13.6617 42.3112C14.1259 42.7712 14.7468 43.039 15.4 43.0612C15.4241 43.7132 15.6966 44.3312 16.1617 44.7887C16.6262 45.2484 17.2469 45.5162 17.9001 45.5387C17.9255 46.1917 18.2002 46.8103 18.6676 47.2671C19.132 47.7267 19.7528 47.9946 20.4059 48.0171C20.43 48.6691 20.7025 49.2871 21.1676 49.7446C22.1855 50.7502 23.823 50.7502 24.841 49.7446L25.501 49.0837L26.161 49.7396C27.178 50.7547 28.8252 50.7532 29.8403 49.7362C30.3012 49.2745 30.5718 48.6564 30.5985 48.0046C31.2527 47.9809 31.8737 47.7113 32.3377 47.2496C32.8026 46.7892 33.0747 46.1691 33.0985 45.5154C33.7528 45.4914 34.3739 45.2215 34.8377 44.7595C35.3026 44.2992 35.5747 43.6791 35.5986 43.0253C37.0291 42.976 38.1487 41.7763 38.0992 40.3457C38.0765 39.6878 37.8042 39.0631 37.3378 38.5986L36.7061 37.9695L41.0886 33.5869L45.2553 29.4202L50.2554 24.4202L49.0787 23.2443ZM7.51244 28.8335L14.6675 21.6785L17.6559 24.6668L10.5008 31.8219L7.51244 28.8335ZM16.1675 41.1262C15.7992 41.4941 15.2025 41.4941 14.8342 41.1262C14.4766 40.7737 14.4724 40.198 14.8249 39.8404C14.8279 39.8373 14.8311 39.8342 14.8342 39.8311L15.5117 39.1595L16.8342 40.4662L16.1675 41.1262ZM18.6567 43.607C18.2889 43.9664 17.7012 43.9657 17.3342 43.6054C16.9764 43.2518 16.9729 42.6751 17.3265 42.3172C17.3291 42.3146 17.3316 42.312 17.3342 42.3095L18.0084 41.6428L19.3234 42.9495L18.6567 43.607ZM21.1676 46.0837C20.7989 46.4507 20.2029 46.4507 19.8342 46.0837C19.4766 45.7312 19.4725 45.1556 19.825 44.798C19.828 44.7948 19.8311 44.7917 19.8342 44.7887L20.5059 44.122L21.8201 45.4287L21.1676 46.0837ZM23.6676 48.5621C23.2997 48.9247 22.7089 48.9247 22.3409 48.5621C21.9833 48.2096 21.9792 47.6339 22.3317 47.2763C22.3347 47.2732 22.3378 47.2701 22.3409 47.2671L23.0076 46.6046L24.3218 47.9112L23.6676 48.5621ZM36.169 41.0866C36.1674 41.0881 36.166 41.0896 36.1644 41.0912H36.1677C35.8015 41.4547 35.2106 41.4547 34.8444 41.0912L33.5944 39.8461C33.2683 39.5212 32.7405 39.5222 32.4156 39.8482C32.0907 40.1743 32.0917 40.7021 32.4177 41.027L33.6677 42.272C34.0293 42.631 34.0313 43.2151 33.6723 43.5766C33.6707 43.5782 33.6693 43.5796 33.6677 43.5812C33.3015 43.9447 32.7106 43.9447 32.3444 43.5812L31.0944 42.3362C30.7683 42.0113 30.2405 42.0122 29.9156 42.3383C29.5907 42.6643 29.5916 43.1921 29.9177 43.517L31.1677 44.762C31.5293 45.121 31.5312 45.7052 31.1723 46.0666C31.1707 46.0682 31.1693 46.0697 31.1677 46.0712C30.8014 46.4348 30.2106 46.4348 29.8443 46.0712L28.5943 44.8262C28.2683 44.5013 27.7405 44.5022 27.4156 44.8283C27.0907 45.1543 27.0916 45.6821 27.4177 46.007L28.6677 47.2521C29.0292 47.611 29.0312 48.1952 28.6722 48.5567C28.6707 48.5582 28.6692 48.5597 28.6677 48.5612C28.301 48.9245 27.7102 48.9245 27.3435 48.5612L11.6808 33.0002L19.1809 25.5002H21.8568L15.74 31.7602C15.421 32.0867 15.424 32.6091 15.7467 32.9319C16.7795 33.975 18.1663 34.5924 19.6326 34.6619C21.108 34.7401 22.5473 34.1878 23.5918 33.1427C23.6287 33.1063 23.6618 33.0664 23.6909 33.0236L23.9926 32.5811C25.7921 33.9998 28.1379 34.5261 30.371 34.0119L36.1644 39.782C36.5259 40.1409 36.528 40.7251 36.169 41.0866ZM35.5319 36.7961L32.036 33.3144L32.6677 32.8336C32.6974 32.8104 32.7252 32.7851 32.751 32.7577L33.5844 31.9244L32.406 30.7461L31.6135 31.5386L30.8927 32.0819C28.6677 33.0337 26.0856 32.5019 24.4176 30.7486C24.0922 30.423 23.5646 30.423 23.2391 30.7483C23.2024 30.785 23.1693 30.8249 23.1401 30.8677L22.3526 32.0202C21.6404 32.6944 20.6837 33.0484 19.7042 33.0002C18.9382 32.9608 18.1975 32.7123 17.5625 32.2819L24.1851 25.5002H31.8227L39.3228 33.0002L35.5319 36.7961ZM40.5011 31.8219L33.346 24.6668L36.3344 21.6785L43.4895 28.8335L40.5011 31.8219Z" fill="white"/>
</g>
<g filter="url(#filter1_d_7685_3446)">
<path d="M11.3342 28.0002H9.66748V29.6669H11.3342V28.0002Z" fill="white"/>
</g>
<g filter="url(#filter2_d_7685_3446)">
<path d="M41.3344 28.0002H39.6677V29.6669H41.3344V28.0002Z" fill="white"/>
</g>
<g filter="url(#filter3_d_7685_3446)">
<path d="M27.1676 15.5002C30.8478 15.496 33.8301 12.5137 33.8343 8.83342C33.8343 8.37321 33.4612 8.00008 33.001 8.00008H31.3343C29.418 8.00112 27.5955 8.82915 26.3342 10.2718V7.16674H27.1676C30.3877 7.16309 32.9973 4.55348 33.001 1.33334C33.001 0.873129 32.6278 0.5 32.1676 0.5H30.5009C28.4502 0.503229 26.5517 1.58314 25.5009 3.3442C24.45 1.58314 22.5516 0.503229 20.5008 0.5H18.8342C18.374 0.5 18.0008 0.873129 18.0008 1.33334C18.0045 4.55348 20.6141 7.16309 23.8342 7.16674H24.6676V10.2718C23.4063 8.82915 21.5838 8.00112 19.6675 8.00008H18.0008C17.5406 8.00008 17.1675 8.37321 17.1675 8.83342C17.1716 12.5137 20.154 15.496 23.8342 15.5002H24.6676V16.8218L19.3225 22.1669H21.6792L25.5009 18.3452L29.3226 22.1669H31.6793L26.3342 16.8218V15.5002H27.1676ZM31.3343 9.66676H32.0985C31.6886 12.071 29.6065 13.8305 27.1676 13.8335H26.4034C26.8132 11.4293 28.8953 9.66978 31.3343 9.66676ZM30.5009 2.16668H31.2509C30.8525 4.10556 29.147 5.49786 27.1676 5.50005H26.4176C26.8159 3.56118 28.5215 2.16887 30.5009 2.16668ZM23.8342 5.50005C21.8548 5.49786 20.1493 4.10556 19.7508 2.16668H20.5008C22.4802 2.16887 24.1858 3.56118 24.5842 5.50005H23.8342ZM23.8342 13.8335C21.3953 13.8305 19.3132 12.071 18.9033 9.66676H19.6675C22.1064 9.66978 24.1885 11.4293 24.5984 13.8335H23.8342Z" fill="white"/>
</g>
</g>
<defs>
<filter id="filter0_d_7685_3446" x="-9.25513" y="8.91089" width="69.5105" height="55.5891" filterUnits="userSpaceOnUse" color-interpolation-filters="sRGB">
<feFlood flood-opacity="0" result="BackgroundImageFix"/>
<feColorMatrix in="SourceAlpha" type="matrix" values="0 0 0 0 0 0 0 0 0 0 0 0 0 0 0 0 0 0 127 0" result="hardAlpha"/>
<feOffset dy="4"/>
<feGaussianBlur stdDeviation="5"/>
<feComposite in2="hardAlpha" operator="out"/>
<feColorMatrix type="matrix" values="0 0 0 0 0 0 0 0 0 0 0 0 0 0 0 0 0 0 0.2 0"/>
<feBlend mode="normal" in2="BackgroundImageFix" result="effect1_dropShadow_7685_3446"/>
<feBlend mode="normal" in="SourceGraphic" in2="effect1_dropShadow_7685_3446" result="shape"/>
</filter>
<filter id="filter1_d_7685_3446" x="-0.33252" y="22.0002" width="21.6667" height="21.6667" filterUnits="userSpaceOnUse" color-interpolation-filters="sRGB">
<feFlood flood-opacity="0" result="BackgroundImageFix"/>
<feColorMatrix in="SourceAlpha" type="matrix" values="0 0 0 0 0 0 0 0 0 0 0 0 0 0 0 0 0 0 127 0" result="hardAlpha"/>
<feOffset dy="4"/>
<feGaussianBlur stdDeviation="5"/>
<feComposite in2="hardAlpha" operator="out"/>
<feColorMatrix type="matrix" values="0 0 0 0 0 0 0 0 0 0 0 0 0 0 0 0 0 0 0.2 0"/>
<feBlend mode="normal" in2="BackgroundImageFix" result="effect1_dropShadow_7685_3446"/>
<feBlend mode="normal" in="SourceGraphic" in2="effect1_dropShadow_7685_3446" result="shape"/>
</filter>
<filter id="filter2_d_7685_3446" x="29.6677" y="22.0002" width="21.6667" height="21.6667" filterUnits="userSpaceOnUse" color-interpolation-filters="sRGB">
<feFlood flood-opacity="0" result="BackgroundImageFix"/>
<feColorMatrix in="SourceAlpha" type="matrix" values="0 0 0 0 0 0 0 0 0 0 0 0 0 0 0 0 0 0 127 0" result="hardAlpha"/>
<feOffset dy="4"/>
<feGaussianBlur stdDeviation="5"/>
<feComposite in2="hardAlpha" operator="out"/>
<feColorMatrix type="matrix" values="0 0 0 0 0 0 0 0 0 0 0 0 0 0 0 0 0 0 0.2 0"/>
<feBlend mode="normal" in2="BackgroundImageFix" result="effect1_dropShadow_7685_3446"/>
<feBlend mode="normal" in="SourceGraphic" in2="effect1_dropShadow_7685_3446" result="shape"/>
</filter>
<filter id="filter3_d_7685_3446" x="7.16748" y="-5.5" width="36.6667" height="41.667" filterUnits="userSpaceOnUse" color-interpolation-filters="sRGB">
<feFlood flood-opacity="0" result="BackgroundImageFix"/>
<feColorMatrix in="SourceAlpha" type="matrix" values="0 0 0 0 0 0 0 0 0 0 0 0 0 0 0 0 0 0 127 0" result="hardAlpha"/>
<feOffset dy="4"/>
<feGaussianBlur stdDeviation="5"/>
<feComposite in2="hardAlpha" operator="out"/>
<feColorMatrix type="matrix" values="0 0 0 0 0 0 0 0 0 0 0 0 0 0 0 0 0 0 0.2 0"/>
<feBlend mode="normal" in2="BackgroundImageFix" result="effect1_dropShadow_7685_3446"/>
<feBlend mode="normal" in="SourceGraphic" in2="effect1_dropShadow_7685_3446" result="shape"/>
</filter>
<clipPath id="clip0_7685_3446">
<rect width="50" height="50" fill="white" transform="translate(0.5 0.5)"/>
</clipPath>
</defs>
</svg>
