<svg width="330" height="366" viewBox="0 0 330 366" fill="none" xmlns="http://www.w3.org/2000/svg">
<rect width="330" height="366" rx="10" fill="#00730C"/>
<g clip-path="url(#clip0_7685_3285)">
<path opacity="0.05" d="M197.884 69.241C180.923 79.558 179.021 101.679 179.697 115.686C192.597 100.522 208.493 92.4866 217.57 90.9714C202.975 96.6892 191.978 108.074 182.832 120.643C179.142 127.111 175.746 133.439 173.82 140.424C171.714 132.245 168.122 124.597 164.246 116.782C153.359 99.8188 139.979 84.2522 121.52 75.7487C133.153 78.3951 153.128 89.9966 168.678 110.602C170.615 92.5218 169.817 63.7401 148.645 49.1079C125.35 33.0103 95.9456 27.5179 81.4237 25.7094C78.1239 25.2988 75.8303 28.9197 77.633 31.7143C82.3878 39.0858 88.8454 52.2105 89.7979 70.1352C90.7462 88.0502 91.8457 121.153 155.813 126.099C165.314 143.463 169.993 152.72 171.723 169.313C171.854 170.572 173.633 170.69 173.935 169.461C175.112 164.656 178.209 140.492 188.907 128.196C238.383 127.262 240.714 101.824 242.253 88.0734C243.66 75.4573 248.452 66.1577 252.315 60.4897C254.164 57.7773 252.033 54.1271 248.76 54.3876C236.962 55.327 215.533 58.5091 197.884 69.241Z" fill="#FBEEE7"/>
</g>
<defs>
<clipPath id="clip0_7685_3285">
<rect width="176" height="176" fill="white" transform="translate(77 10)"/>
</clipPath>
</defs>
</svg>
